<?xml version="1.0" standalone="no"?>
<!DOCTYPE svg PUBLIC "-//W3C//DTD SVG 20010904//EN"
 "http://www.w3.org/TR/2001/REC-SVG-20010904/DTD/svg10.dtd">
<svg version="1.0" xmlns="http://www.w3.org/2000/svg"
 width="928.000000pt" height="928.000000pt" viewBox="0 0 928.000000 928.000000"
 preserveAspectRatio="xMidYMid meet">
<metadata>
Created by potrace 1.14, written by Peter Selinger 2001-2017
</metadata>
<g transform="translate(0.000000,928.000000) scale(0.100000,-0.100000)"
fill="#000000" stroke="none">
<path d="M7238 8575 c-2 -2 -32 -6 -68 -9 -69 -6 -101 -11 -165 -27 -22 -5
-51 -12 -64 -15 -94 -20 -299 -112 -396 -177 -131 -88 -271 -221 -366 -347
-51 -68 -143 -239 -174 -325 -10 -27 -22 -55 -26 -60 -4 -6 -11 -26 -14 -44
-3 -19 -9 -41 -14 -50 -6 -13 -37 -119 -46 -156 -1 -5 -5 -21 -9 -35 -4 -14
-9 -38 -11 -55 -2 -16 -4 -30 -5 -30 -2 0 -14 -62 -25 -130 -8 -45 -17 -99
-21 -119 -2 -11 -6 -48 -9 -81 -3 -33 -8 -77 -11 -99 -3 -21 -8 -68 -11 -105
-2 -36 -6 -91 -8 -121 -9 -121 -20 -607 -15 -635 1 -5 2 -14 1 -20 -3 -14 -3
-208 -1 -220 1 -6 2 -14 1 -20 -3 -14 -3 -208 -1 -220 1 -6 2 -13 1 -17 -3
-12 -3 -291 -1 -303 1 -5 2 -14 1 -20 -3 -14 -3 -208 -1 -220 1 -6 2 -14 1
-20 -3 -14 -3 -208 -1 -220 1 -6 2 -14 1 -20 -3 -14 -3 -208 -1 -220 1 -6 2
-14 1 -20 -3 -14 -3 -208 -1 -220 1 -6 2 -12 1 -15 -2 -8 -2 -936 0 -946 1 -5
0 -13 -1 -19 -4 -23 6 -477 14 -590 9 -124 32 -348 42 -410 3 -16 7 -42 9 -57
2 -15 8 -51 14 -80 6 -29 13 -66 16 -83 15 -88 61 -269 82 -325 4 -8 7 -17 8
-20 4 -19 29 -87 34 -95 3 -5 6 -15 7 -21 4 -25 106 -219 150 -286 63 -94 258
-289 354 -353 41 -27 77 -52 80 -55 9 -9 132 -67 190 -90 78 -31 91 -36 130
-48 73 -23 228 -51 314 -56 39 -3 73 -6 76 -6 20 -7 138 -4 148 4 6 4 12 5 12
0 0 -21 267 12 425 52 180 46 387 149 509 254 94 81 216 216 216 238 0 7 5 12
10 12 6 0 10 6 10 13 0 6 11 25 25 41 14 16 25 33 25 38 0 5 12 27 27 51 14
23 26 43 25 44 -1 2 9 27 22 55 53 117 118 301 130 368 2 14 5 25 6 25 1 0 3
7 5 15 2 8 8 35 14 60 19 73 21 84 26 115 3 17 8 37 10 45 2 8 6 31 9 50 3 19
8 46 11 60 2 13 7 42 10 65 3 22 8 51 10 65 3 14 7 48 10 75 3 28 7 61 9 75 2
14 7 58 10 98 7 70 7 72 -16 73 -13 0 -32 2 -43 5 -11 2 -40 6 -65 9 -25 3
-58 8 -75 10 -16 2 -68 9 -115 15 -47 6 -101 13 -120 15 -19 3 -55 7 -80 10
-25 2 -56 7 -70 9 -14 3 -52 8 -84 11 -32 3 -62 8 -67 10 -4 3 -11 0 -14 -6
-7 -10 -17 -103 -18 -156 -1 -13 -3 -23 -6 -23 -4 0 -6 -19 -7 -43 0 -38 -5
-74 -20 -172 -2 -16 -6 -43 -8 -60 -2 -16 -7 -41 -10 -55 -5 -23 -10 -46 -22
-113 -3 -15 -21 -82 -40 -149 -91 -320 -222 -485 -449 -566 -69 -24 -153 -36
-255 -35 -202 1 -347 59 -474 189 -75 78 -81 85 -96 114 -7 14 -16 27 -19 30
-14 11 -88 189 -93 225 -2 11 -6 22 -10 25 -3 3 -8 19 -11 35 -3 17 -12 62
-20 100 -9 39 -18 95 -22 125 -4 30 -8 57 -10 60 -3 5 -11 92 -21 210 -12 156
-15 525 -15 2135 0 1621 3 1976 15 2140 5 67 16 172 21 197 3 12 7 44 10 72 7
62 37 200 60 281 10 33 17 60 16 60 -9 0 75 164 112 221 46 68 126 157 163
182 10 6 39 26 64 42 42 28 138 63 205 75 63 10 218 5 265 -10 10 -3 28 -8 40
-10 12 -2 28 -9 36 -16 8 -6 14 -8 14 -5 0 4 28 -8 62 -26 57 -30 188 -143
188 -161 0 -7 37 -64 50 -77 11 -11 70 -139 70 -152 0 -8 4 -18 8 -23 5 -6 14
-30 21 -55 8 -25 17 -56 22 -70 5 -14 11 -34 13 -45 3 -11 12 -55 21 -98 9
-43 18 -91 20 -105 2 -15 6 -38 9 -52 5 -25 16 -100 23 -155 3 -30 11 -118 12
-142 1 -7 9 -13 20 -13 17 0 220 47 301 70 19 6 134 34 255 63 l220 53 -2 35
c0 19 -4 59 -8 89 -3 30 -8 69 -10 85 -3 27 -11 81 -22 145 -2 14 -6 39 -7 55
-2 17 -6 37 -9 45 -5 15 -46 187 -52 219 -7 38 -76 233 -101 287 -16 32 -28
62 -29 65 -1 16 -122 209 -159 253 -74 90 -214 211 -286 248 -14 7 -27 15 -30
19 -21 24 -252 114 -350 137 -112 27 -144 33 -188 38 -26 3 -60 8 -77 10 -34
6 -402 14 -407 9z"/>
<path d="M52 8410 c-9 -6 -9 -7596 0 -7606 9 -8 123 -8 137 0 6 4 11 3 11 -3
0 -6 11 -6 30 -1 16 5 30 5 30 1 0 -4 22 -5 50 -1 27 3 55 3 62 -1 6 -4 20 -3
29 2 12 6 20 5 24 -1 4 -6 11 -8 16 -4 15 9 79 11 79 2 0 -3 13 -3 30 2 16 5
30 6 30 2 0 -8 145 -6 166 2 8 3 14 1 14 -4 0 -5 13 -5 30 0 17 5 30 5 30 0 0
-5 7 -7 16 -3 9 3 25 6 37 7 l21 1 0 3408 c0 1874 3 3407 7 3407 3 0 6 -6 6
-12 0 -7 3 -24 6 -38 5 -24 12 -65 22 -125 9 -52 35 -199 40 -225 3 -14 8 -43
10 -65 7 -52 10 -66 18 -90 4 -11 9 -42 11 -69 3 -26 7 -56 10 -65 3 -9 7 -34
11 -56 3 -22 7 -47 10 -55 2 -8 7 -31 9 -50 3 -19 16 -96 30 -170 13 -74 27
-148 29 -165 5 -30 34 -193 41 -230 2 -11 7 -40 12 -65 4 -25 8 -47 9 -50 1
-3 5 -30 9 -60 5 -30 10 -63 12 -72 9 -43 12 -56 19 -103 5 -27 9 -52 10 -55
1 -3 5 -30 10 -60 5 -30 9 -57 10 -60 1 -3 5 -25 9 -50 5 -25 10 -52 11 -61 6
-31 17 -94 20 -114 4 -24 11 -62 25 -135 6 -30 13 -73 16 -95 2 -22 7 -47 10
-55 3 -8 7 -31 10 -50 2 -19 6 -46 9 -60 3 -14 7 -36 9 -50 2 -14 9 -52 15
-85 6 -33 13 -73 16 -90 2 -16 7 -41 10 -55 6 -31 14 -74 21 -120 3 -19 9 -55
14 -80 5 -25 11 -58 14 -75 2 -16 14 -84 26 -150 11 -66 23 -131 25 -145 4
-27 12 -70 20 -110 6 -26 12 -64 20 -115 3 -16 14 -82 25 -145 12 -63 23 -124
25 -135 1 -11 6 -36 9 -55 41 -224 58 -326 59 -352 1 -10 5 -18 10 -18 4 0 6
-4 3 -9 -3 -4 1 -44 10 -87 8 -44 17 -92 20 -109 2 -16 6 -41 9 -55 3 -14 10
-52 15 -85 10 -58 14 -85 25 -142 3 -16 8 -43 11 -62 3 -18 8 -43 10 -55 2
-11 7 -37 10 -56 3 -19 8 -46 10 -60 3 -14 7 -38 10 -55 2 -16 6 -40 9 -52 l5
-22 485 1 c444 0 485 1 486 16 0 10 2 24 4 32 5 24 14 72 20 114 4 21 8 48 11
60 24 125 57 315 56 328 0 10 4 20 9 23 5 4 7 10 5 14 -3 4 4 57 15 117 11 60
22 123 24 139 3 17 8 44 12 60 3 17 7 40 9 52 1 12 5 34 8 50 3 15 8 44 11 63
4 19 11 55 16 79 5 24 8 46 5 48 -3 3 -1 15 4 28 5 13 11 40 15 62 5 36 7 48
19 113 6 27 16 92 21 127 2 12 6 34 9 50 3 15 8 42 11 58 3 17 7 41 10 55 2
13 7 40 10 60 3 20 8 47 10 60 3 14 8 39 10 55 3 17 12 68 21 115 9 47 17 96
19 110 2 14 8 48 14 75 5 28 12 68 15 90 4 23 9 52 11 65 3 14 8 40 11 59 3
18 8 43 10 55 2 11 6 35 9 51 3 17 10 53 15 80 5 28 12 66 14 85 3 19 8 46 11
60 3 14 8 45 11 69 2 24 6 46 8 50 3 4 7 25 10 47 4 22 8 51 11 64 3 14 14 79
25 145 12 66 25 140 30 165 5 25 12 61 15 80 2 19 7 47 10 63 9 47 14 79 30
172 24 137 29 165 51 280 8 44 17 98 20 120 2 22 7 48 10 58 6 20 10 45 19
112 3 22 9 60 14 85 13 60 40 207 46 245 5 32 13 84 21 125 2 14 11 63 19 110
9 47 18 97 20 110 3 14 8 39 10 55 3 17 10 57 16 90 6 33 12 71 14 85 2 14 4
25 5 25 1 0 4 18 6 40 5 38 22 115 27 115 1 0 2 -1540 2 -3422 0 -3254 1
-3423 18 -3422 9 1 17 -2 17 -7 0 -5 11 -4 25 1 14 5 25 6 25 2 0 -8 104 -6
126 2 8 3 14 2 14 -2 0 -8 135 -6 157 2 7 3 13 2 13 -2 0 -8 134 -6 156 2 8 3
14 2 14 -2 0 -4 17 -6 37 -5 21 1 38 2 38 3 0 5 68 4 70 -1 2 -3 27 -3 55 1
28 4 53 3 56 -2 9 -15 26 4 21 23 -3 11 -2 19 1 19 8 0 5 207 -2 227 -3 7 -2
13 2 13 8 0 6 206 -2 227 -3 7 -2 13 2 13 4 0 7 32 7 70 0 39 -4 70 -8 70 -5
0 -6 4 -3 9 6 9 10 214 6 236 -1 6 -2 13 -1 17 2 15 3 133 1 143 -1 6 -2 13
-1 17 2 15 3 133 1 143 -1 6 -2 13 -1 17 2 13 3 133 1 138 -4 14 -4 100 0 100
6 0 2 210 -4 227 -3 7 -2 13 2 13 8 0 6 206 -2 227 -3 7 -2 13 2 13 8 0 6 206
-2 227 -3 7 -2 13 2 13 8 0 6 206 -2 227 -3 7 -2 13 2 13 4 0 7 32 7 70 0 39
-4 70 -8 70 -5 0 -6 4 -3 9 6 9 10 214 6 236 -1 6 -2 13 -1 17 2 15 3 133 1
143 -1 6 -2 13 -1 17 2 15 3 133 1 143 -1 6 -2 13 -1 17 2 15 3 133 1 143 -1
6 -1 15 0 20 5 24 1 216 -5 225 -3 5 -3 10 2 10 8 0 7 205 -1 227 -3 7 -2 13
2 13 4 0 6 35 4 77 -3 94 -3 85 -2 206 1 53 -2 102 -5 107 -3 6 -3 10 2 10 8
0 7 205 -1 227 -3 7 -2 13 2 13 8 0 6 365 -2 386 -3 8 -2 14 2 14 8 0 6 206
-2 227 -3 7 -2 13 2 13 4 0 6 35 4 77 -3 94 -3 85 -2 206 1 53 -2 102 -5 107
-3 6 -3 10 2 10 8 0 7 205 -1 227 -3 7 -2 13 2 13 8 0 6 365 -2 386 -3 8 -2
14 2 14 8 0 6 206 -2 227 -3 7 -2 13 2 13 4 0 6 35 4 77 -3 94 -3 85 -2 206 1
53 -2 102 -5 107 -3 6 -3 10 2 10 8 0 7 205 -1 227 -3 7 -2 13 2 13 8 0 6 365
-2 386 -3 8 -2 14 2 14 6 0 6 102 -1 185 l-2 30 -658 0 c-362 0 -660 -2 -662
-6 -2 -3 -7 -21 -10 -40 -10 -51 -55 -310 -60 -339 -11 -63 -15 -89 -26 -140
-6 -30 -12 -66 -14 -80 -1 -14 -8 -54 -15 -90 -6 -36 -13 -76 -15 -90 -2 -14
-4 -27 -5 -30 -3 -6 -4 -11 -14 -75 -5 -27 -10 -59 -13 -70 -2 -11 -6 -33 -8
-50 -3 -16 -7 -41 -10 -55 -2 -14 -7 -36 -10 -50 -2 -14 -7 -38 -10 -55 -3
-16 -7 -40 -9 -51 -2 -12 -7 -39 -10 -60 -3 -22 -8 -50 -11 -64 -13 -61 -16
-77 -20 -110 -3 -19 -7 -46 -10 -60 -3 -14 -8 -38 -10 -55 -3 -16 -12 -68 -21
-115 -9 -47 -17 -96 -19 -110 -2 -14 -8 -47 -14 -75 -5 -27 -12 -68 -15 -90
-4 -23 -9 -52 -11 -65 -8 -37 -14 -73 -36 -195 -10 -60 -21 -121 -24 -135 -2
-13 -7 -40 -10 -60 -3 -20 -8 -47 -11 -60 -3 -14 -7 -37 -9 -52 -4 -28 -21
-124 -30 -168 -3 -14 -12 -65 -21 -115 -8 -49 -17 -101 -19 -115 -3 -14 -7
-38 -10 -55 -3 -16 -10 -52 -15 -80 -5 -27 -13 -68 -16 -90 -13 -81 -23 -143
-34 -195 -5 -25 -11 -61 -14 -80 -4 -19 -8 -46 -11 -60 -3 -13 -7 -40 -10 -60
-3 -20 -8 -47 -11 -60 -5 -27 -8 -42 -19 -105 -3 -22 -8 -47 -10 -55 -2 -8 -7
-35 -11 -60 -7 -49 -12 -75 -14 -75 -1 0 -3 -16 -5 -36 -1 -20 -5 -45 -9 -55
-3 -10 -8 -35 -11 -54 -9 -55 -26 -152 -31 -180 -3 -14 -7 -38 -9 -55 -3 -16
-7 -41 -10 -55 -3 -14 -8 -41 -10 -60 -3 -19 -8 -46 -12 -60 -3 -14 -7 -32 -8
-40 -1 -8 -6 -35 -10 -60 -5 -25 -10 -53 -11 -62 -1 -10 -3 -19 -4 -20 -1 -2
-4 -16 -5 -33 -2 -16 -8 -55 -14 -85 -7 -30 -14 -68 -16 -85 -3 -16 -7 -41
-10 -55 -3 -14 -7 -41 -10 -60 -3 -19 -8 -42 -10 -50 -2 -8 -7 -33 -10 -55 -3
-23 -8 -52 -11 -65 -3 -14 -7 -41 -9 -61 -3 -20 -9 -47 -14 -60 l-10 -24 -1
25 c-2 28 -4 41 -19 125 -6 33 -14 76 -17 95 -3 19 -7 45 -10 57 -2 13 -6 35
-9 50 -3 16 -10 53 -15 83 -10 58 -17 99 -24 140 -3 14 -14 81 -26 150 -12 69
-23 135 -26 148 -7 40 -14 77 -19 107 -3 17 -7 41 -10 55 -15 75 -38 214 -39
238 -1 12 -3 22 -6 22 -3 0 -6 12 -7 28 -1 25 -10 67 -13 67 -1 0 -3 14 -4 30
-2 17 -13 86 -25 155 -13 69 -24 136 -26 150 -4 26 -11 65 -20 110 -3 14 -7
39 -10 55 -2 17 -7 41 -9 55 -3 14 -12 66 -20 115 -9 50 -18 101 -21 115 -3
14 -8 43 -11 65 -8 52 -12 75 -18 101 -2 12 -7 39 -10 60 -6 37 -9 55 -22 114
-4 23 -12 74 -19 125 -1 11 -5 31 -8 45 -6 23 -14 71 -22 125 -1 11 -4 21 -5
23 -1 1 -3 10 -4 20 -3 24 -17 110 -22 135 -3 12 -7 31 -8 42 -2 11 -7 36 -10
55 -4 19 -11 60 -16 90 -5 30 -12 71 -16 90 -3 19 -8 46 -9 60 -2 14 -4 25 -5
25 -2 0 -8 30 -15 80 -3 22 -8 51 -11 65 -3 14 -7 39 -9 55 -2 17 -11 68 -20
115 -16 83 -19 104 -29 165 -3 17 -12 68 -20 115 -9 47 -18 96 -20 110 -3 14
-5 25 -6 25 -1 0 -3 16 -5 35 -2 19 -6 46 -10 60 -6 29 -6 31 -39 220 -14 80
-27 156 -30 170 -3 14 -8 41 -10 60 -3 19 -7 44 -9 55 -4 18 -11 58 -24 132
-6 36 -11 66 -17 98 -3 17 -8 46 -11 65 -3 19 -10 49 -14 67 -5 17 -7 34 -4
36 2 3 0 22 -6 43 -6 22 -13 57 -16 79 -4 22 -8 47 -10 55 -4 13 -84 15 -660
16 -361 0 -659 -3 -663 -6z"/>
</g>
</svg>
